<svg width="18" height="18" viewBox="0 0 18 18" fill="none" xmlns="http://www.w3.org/2000/svg">
<path d="M12.3761 11.2511H11.7836L11.5736 11.0486C12.0423 10.5041 12.3849 9.86266 12.5767 9.17029C12.7686 8.47792 12.8051 7.75169 12.6836 7.04358C12.3311 4.95858 10.5911 3.29358 8.49108 3.03858C7.75279 2.94518 7.00292 3.02191 6.29885 3.2629C5.59478 3.50388 4.95516 3.90274 4.42895 4.42895C3.90274 4.95516 3.50388 5.59478 3.2629 6.29885C3.02191 7.00292 2.94518 7.75279 3.03858 8.49108C3.29358 10.5911 4.95858 12.3311 7.04358 12.6836C7.75169 12.8051 8.47792 12.7686 9.17029 12.5767C9.86266 12.3849 10.5041 12.0423 11.0486 11.5736L11.2511 11.7836V12.3761L14.4386 15.5636C14.7461 15.8711 15.2486 15.8711 15.5561 15.5636C15.8636 15.2561 15.8636 14.7536 15.5561 14.4461L12.3761 11.2511ZM7.87608 11.2511C6.00858 11.2511 4.50108 9.74358 4.50108 7.87608C4.50108 6.00858 6.00858 4.50108 7.87608 4.50108C9.74358 4.50108 11.2511 6.00858 11.2511 7.87608C11.2511 9.74358 9.74358 11.2511 7.87608 11.2511Z" fill="#272727"/>
</svg>
