<svg width="25" height="17" viewBox="0 0 25 17" fill="none" xmlns="http://www.w3.org/2000/svg">
<path d="M1.38889 16.6667H23.6111C24.375 16.6667 25 16.0417 25 15.2778C25 14.5139 24.375 13.8889 23.6111 13.8889H1.38889C0.625 13.8889 0 14.5139 0 15.2778C0 16.0417 0.625 16.6667 1.38889 16.6667ZM1.38889 9.72222H23.6111C24.375 9.72222 25 9.09722 25 8.33333C25 7.56944 24.375 6.94444 23.6111 6.94444H1.38889C0.625 6.94444 0 7.56944 0 8.33333C0 9.09722 0.625 9.72222 1.38889 9.72222ZM0 1.38889C0 2.15278 0.625 2.77778 1.38889 2.77778H23.6111C24.375 2.77778 25 2.15278 25 1.38889C25 0.625 24.375 0 23.6111 0H1.38889C0.625 0 0 0.625 0 1.38889Z" fill="#272727"/>
</svg>
