<svg width="20" height="20" viewBox="0 0 20 20" fill="none" xmlns="http://www.w3.org/2000/svg">
<path d="M13.654 3.49058L13.729 3.58334H13.8483H17.25V4.75001H2.75V3.58334H6.15167H6.27098L6.34603 3.49058L7.61932 1.91667H12.3807L13.654 3.49058ZM4.41667 16.6667V6.08334H5H15.5833V16.6667C15.5833 17.0424 15.4341 17.4027 15.1684 17.6684C14.9027 17.9341 14.5424 18.0833 14.1667 18.0833H5.83333C5.45761 18.0833 5.09728 17.9341 4.8316 17.6684C4.56592 17.4027 4.41667 17.0424 4.41667 16.6667Z" fill="#86C232" stroke="#272727" stroke-width="0.5"/>
<path opacity="0.8" d="M7 15V14.9547L9.48276 11.9434L7.09736 9.04528V9H8.02231L9.26369 10.483L9.99391 11.4113L10.712 10.4943L11.9533 9H12.8661V9.04528L10.4929 11.9547L13 14.9547V15H12.0507L10.6876 13.3925L9.98174 12.5094L9.3002 13.3811L7.93712 15H7Z" fill="#272727"/>
</svg>
