<svg width="14" height="13" viewBox="0 0 14 13" fill="none" xmlns="http://www.w3.org/2000/svg">
<path d="M10.0694 8.25108H9.47688L9.26688 8.04858C9.73559 7.50406 10.0781 6.86266 10.27 6.17029C10.4619 5.47792 10.4984 4.75169 10.3769 4.04358C10.0244 1.95858 8.28438 0.29358 6.18438 0.0385797C5.44609 -0.0548209 4.69622 0.0219085 3.99215 0.262896C3.28807 0.503884 2.64846 0.902744 2.12225 1.42895C1.59604 1.95516 1.19718 2.59478 0.956195 3.29885C0.715207 4.00292 0.638477 4.75279 0.731878 5.49108C0.986878 7.59108 2.65188 9.33108 4.73688 9.68358C5.44499 9.80512 6.17122 9.76864 6.86359 9.57674C7.55596 9.38485 8.19735 9.04229 8.74188 8.57358L8.94438 8.78358V9.37608L12.1319 12.5636C12.4394 12.8711 12.9419 12.8711 13.2494 12.5636C13.5569 12.2561 13.5569 11.7536 13.2494 11.4461L10.0694 8.25108ZM5.56938 8.25108C3.70188 8.25108 2.19438 6.74358 2.19438 4.87608C2.19438 3.00858 3.70188 1.50108 5.56938 1.50108C7.43688 1.50108 8.94438 3.00858 8.94438 4.87608C8.94438 6.74358 7.43688 8.25108 5.56938 8.25108Z" fill="#272727"/>
</svg>
