<svg width="21" height="14" viewBox="0 0 21 14" fill="none" xmlns="http://www.w3.org/2000/svg">
<path d="M1.80435 13.6667H19.5821C20.1932 13.6667 20.6932 13.1667 20.6932 12.5556C20.6932 11.9444 20.1932 11.4444 19.5821 11.4444H1.80435C1.19324 11.4444 0.693237 11.9444 0.693237 12.5556C0.693237 13.1667 1.19324 13.6667 1.80435 13.6667ZM1.80435 8.11111H19.5821C20.1932 8.11111 20.6932 7.61111 20.6932 7C20.6932 6.38889 20.1932 5.88889 19.5821 5.88889H1.80435C1.19324 5.88889 0.693237 6.38889 0.693237 7C0.693237 7.61111 1.19324 8.11111 1.80435 8.11111ZM0.693237 1.44444C0.693237 2.05555 1.19324 2.55555 1.80435 2.55555H19.5821C20.1932 2.55555 20.6932 2.05555 20.6932 1.44444C20.6932 0.833332 20.1932 0.333332 19.5821 0.333332H1.80435C1.19324 0.333332 0.693237 0.833332 0.693237 1.44444Z" fill="#272727"/>
</svg>
