<svg width="22" height="22" viewBox="0 0 22 22" fill="none" xmlns="http://www.w3.org/2000/svg">
<path d="M19.1388 9.42727H2.27941C2.05449 9.42536 1.83178 9.47172 1.62631 9.56322C1.42083 9.65471 1.23737 9.78922 1.08831 9.95766C0.939249 10.1261 0.828052 10.3246 0.762222 10.5396C0.696393 10.7547 0.677464 10.9814 0.706713 11.2044L1.85478 19.8543C1.90469 20.235 2.09217 20.5843 2.38188 20.8364C2.67159 21.0884 3.0435 21.2258 3.42748 21.2225H17.9592C18.3432 21.2258 18.7151 21.0884 19.0048 20.8364C19.2945 20.5843 19.482 20.235 19.5319 19.8543L20.68 11.2044C20.7089 10.984 20.6908 10.76 20.6268 10.5471C20.5628 10.3343 20.4544 10.1374 20.3088 9.96946C20.1632 9.80153 19.9836 9.66639 19.7819 9.57293C19.5802 9.47947 19.361 9.42983 19.1388 9.42727ZM6.77733 13.359V17.2908V13.359ZM10.7091 13.359V17.2908V13.359ZM14.6408 13.359V17.2908V13.359Z" fill="#86C232"/>
<path d="M6.77733 13.359V17.2908M10.7091 13.359V17.2908M14.6408 13.359V17.2908M19.1388 9.42727H2.27941C2.05449 9.42536 1.83178 9.47172 1.62631 9.56322C1.42083 9.65471 1.23737 9.78922 1.08831 9.95766C0.939249 10.1261 0.828052 10.3246 0.762222 10.5396C0.696393 10.7547 0.677464 10.9814 0.706713 11.2044L1.85478 19.8543C1.90469 20.235 2.09217 20.5843 2.38188 20.8364C2.67159 21.0884 3.0435 21.2258 3.42748 21.2225H17.9592C18.3432 21.2258 18.7151 21.0884 19.0048 20.8364C19.2945 20.5843 19.482 20.235 19.5319 19.8543L20.68 11.2044C20.7089 10.984 20.6908 10.76 20.6268 10.5471C20.5628 10.3343 20.4544 10.1374 20.3088 9.96946C20.1632 9.80153 19.9836 9.66639 19.7819 9.57293C19.5802 9.47947 19.361 9.42983 19.1388 9.42727Z" stroke="#272727" stroke-width="1.28571" stroke-linecap="round" stroke-linejoin="round"/>
<path d="M14.6094 2.41301C15.5515 2.57577 16.4146 3.04176 17.0675 3.74011C17.7205 4.43847 18.1275 5.33096 18.2266 6.28185L18.5726 9.42725M2.84558 9.42725L3.19158 6.28185C3.29714 5.3366 3.70698 4.45124 4.35939 3.75913C5.01179 3.06702 5.87141 2.60564 6.80878 2.44447" fill="#86C232"/>
<path d="M14.6094 2.41301C15.5515 2.57577 16.4146 3.04176 17.0675 3.74011C17.7205 4.43847 18.1275 5.33096 18.2266 6.28185L18.5726 9.42725M2.84558 9.42725L3.19158 6.28185C3.29714 5.3366 3.70698 4.45124 4.35939 3.75913C5.01179 3.06702 5.87141 2.60564 6.80878 2.44447" stroke="#272727" stroke-width="1.28571" stroke-linecap="round" stroke-linejoin="round"/>
<path d="M14.6408 2.7433C14.6408 3.00146 14.59 3.2571 14.4912 3.49561C14.3924 3.73412 14.2476 3.95083 14.0651 4.13338C13.8825 4.31593 13.6658 4.46074 13.4273 4.55953C13.1888 4.65832 12.9331 4.70917 12.675 4.70917H8.74322C8.22184 4.70917 7.72181 4.50205 7.35314 4.13338C6.98446 3.76471 6.77734 3.26468 6.77734 2.7433C6.77734 2.22192 6.98446 1.72189 7.35314 1.35322C7.72181 0.984542 8.22184 0.777424 8.74322 0.777424H12.675C13.1964 0.777424 13.6964 0.984542 14.0651 1.35322C14.4337 1.72189 14.6408 2.22192 14.6408 2.7433Z" fill="#86C232" stroke="#272727" stroke-width="1.28571" stroke-linecap="round" stroke-linejoin="round"/>
</svg>
