<svg width="21" height="26" viewBox="0 0 21 26" fill="none" xmlns="http://www.w3.org/2000/svg">
<path d="M17.6934 14C18.3564 14 18.9923 14.2634 19.4611 14.7322C19.93 15.2011 20.1934 15.837 20.1934 16.5V17.5C20.1934 21.1072 16.7598 25 10.6934 25C4.62689 25 1.19336 21.1072 1.19336 17.5V16.5C1.19336 15.837 1.45675 15.2011 1.92559 14.7322C2.39443 14.2634 3.03032 14 3.69336 14H17.6934ZM10.6934 1C12.0194 1 13.2912 1.52678 14.2289 2.46447C15.1666 3.40215 15.6934 4.67392 15.6934 6C15.6934 7.32608 15.1666 8.59785 14.2289 9.53553C13.2912 10.4732 12.0194 11 10.6934 11C9.36728 11 8.09551 10.4732 7.15782 9.53553C6.22014 8.59785 5.69336 7.32608 5.69336 6C5.69336 4.67392 6.22014 3.40215 7.15782 2.46447C8.09551 1.52678 9.36728 1 10.6934 1Z" fill="#86C232" stroke="#272727"/>
</svg>
