<svg width="776" height="76" viewBox="0 0 776 76" fill="none" xmlns="http://www.w3.org/2000/svg">
<g filter="url(#filter0_d_287_16)">
<rect x="25.6933" y="21" width="725" height="26" rx="13" fill="white" fill-opacity="0.6" shape-rendering="crispEdges"/>
<path d="M361.125 40V30.55H369.621V40H368.343V31.324L368.667 31.666H362.079L362.403 31.324V40H361.125ZM377.142 40.09C376.23 40.09 375.408 39.886 374.676 39.478C373.956 39.058 373.386 38.488 372.966 37.768C372.546 37.036 372.336 36.202 372.336 35.266C372.336 34.318 372.546 33.484 372.966 32.764C373.386 32.044 373.956 31.48 374.676 31.072C375.396 30.664 376.218 30.46 377.142 30.46C378.078 30.46 378.906 30.664 379.626 31.072C380.358 31.48 380.928 32.044 381.336 32.764C381.756 33.484 381.966 34.318 381.966 35.266C381.966 36.202 381.756 37.036 381.336 37.768C380.928 38.488 380.358 39.058 379.626 39.478C378.894 39.886 378.066 40.09 377.142 40.09ZM377.142 38.956C377.826 38.956 378.432 38.806 378.96 38.506C379.488 38.194 379.902 37.762 380.202 37.21C380.514 36.646 380.67 35.998 380.67 35.266C380.67 34.522 380.514 33.874 380.202 33.322C379.902 32.77 379.488 32.344 378.96 32.044C378.432 31.732 377.832 31.576 377.16 31.576C376.488 31.576 375.888 31.732 375.36 32.044C374.832 32.344 374.412 32.77 374.1 33.322C373.788 33.874 373.632 34.522 373.632 35.266C373.632 35.998 373.788 36.646 374.1 37.21C374.412 37.762 374.832 38.194 375.36 38.506C375.888 38.806 376.482 38.956 377.142 38.956ZM384.697 40V30.55H385.975V38.056L392.293 30.55H393.427V40H392.149V32.476L385.849 40H384.697ZM401.05 40.09C400.114 40.09 399.274 39.886 398.53 39.478C397.798 39.058 397.222 38.488 396.802 37.768C396.382 37.036 396.172 36.202 396.172 35.266C396.172 34.318 396.382 33.484 396.802 32.764C397.222 32.044 397.798 31.48 398.53 31.072C399.274 30.664 400.114 30.46 401.05 30.46C401.854 30.46 402.58 30.616 403.228 30.928C403.876 31.24 404.386 31.708 404.758 32.332L403.804 32.98C403.48 32.5 403.078 32.146 402.598 31.918C402.118 31.69 401.596 31.576 401.032 31.576C400.36 31.576 399.754 31.732 399.214 32.044C398.674 32.344 398.248 32.77 397.936 33.322C397.624 33.874 397.468 34.522 397.468 35.266C397.468 36.01 397.624 36.658 397.936 37.21C398.248 37.762 398.674 38.194 399.214 38.506C399.754 38.806 400.36 38.956 401.032 38.956C401.596 38.956 402.118 38.842 402.598 38.614C403.078 38.386 403.48 38.038 403.804 37.57L404.758 38.218C404.386 38.83 403.876 39.298 403.228 39.622C402.58 39.934 401.854 40.09 401.05 40.09ZM414.162 40L410.274 35.32L411.336 34.69L415.674 40H414.162ZM407.232 40V30.55H408.51V40H407.232ZM408.114 35.788V34.69H411.156V35.788H408.114ZM411.444 35.41L410.256 35.23L414.018 30.55H415.404L411.444 35.41Z" fill="#272727"/>
<path d="M725.069 36.2511H724.477L724.267 36.0486C724.736 35.5041 725.078 34.8627 725.27 34.1703C725.462 33.4779 725.498 32.7517 725.377 32.0436C725.024 29.9586 723.284 28.2936 721.184 28.0386C720.446 27.9452 719.696 28.0219 718.992 28.2629C718.288 28.5039 717.648 28.9027 717.122 29.429C716.596 29.9552 716.197 30.5948 715.956 31.2988C715.715 32.0029 715.638 32.7528 715.732 33.4911C715.987 35.5911 717.652 37.3311 719.737 37.6836C720.445 37.8051 721.171 37.7686 721.864 37.5767C722.556 37.3849 723.197 37.0423 723.742 36.5736L723.944 36.7836V37.3761L727.132 40.5636C727.439 40.8711 727.942 40.8711 728.249 40.5636C728.557 40.2561 728.557 39.7536 728.249 39.4461L725.069 36.2511ZM720.569 36.2511C718.702 36.2511 717.194 34.7436 717.194 32.8761C717.194 31.0086 718.702 29.5011 720.569 29.5011C722.437 29.5011 723.944 31.0086 723.944 32.8761C723.944 34.7436 722.437 36.2511 720.569 36.2511Z" fill="#272727"/>
</g>
<defs>
<filter id="filter0_d_287_16" x="0.693283" y="0" width="775" height="76" filterUnits="userSpaceOnUse" color-interpolation-filters="sRGB">
<feFlood flood-opacity="0" result="BackgroundImageFix"/>
<feColorMatrix in="SourceAlpha" type="matrix" values="0 0 0 0 0 0 0 0 0 0 0 0 0 0 0 0 0 0 127 0" result="hardAlpha"/>
<feOffset dy="4"/>
<feGaussianBlur stdDeviation="12.5"/>
<feComposite in2="hardAlpha" operator="out"/>
<feColorMatrix type="matrix" values="0 0 0 0 0 0 0 0 0 0 0 0 0 0 0 0 0 0 0.1 0"/>
<feBlend mode="normal" in2="BackgroundImageFix" result="effect1_dropShadow_287_16"/>
<feBlend mode="normal" in="SourceGraphic" in2="effect1_dropShadow_287_16" result="shape"/>
</filter>
</defs>
</svg>
