<svg width="20" height="25" viewBox="0 0 20 25" fill="none" xmlns="http://www.w3.org/2000/svg">
<path d="M17 13.5C17.663 13.5 18.2989 13.7634 18.7678 14.2322C19.2366 14.7011 19.5 15.337 19.5 16V17C19.5 20.6072 16.0665 24.5 10 24.5C3.93353 24.5 0.5 20.6072 0.5 17V16C0.5 15.337 0.763392 14.7011 1.23223 14.2322C1.70107 13.7634 2.33696 13.5 3 13.5H17ZM10 0.5C11.3261 0.5 12.5979 1.02678 13.5355 1.96447C14.4732 2.90215 15 4.17392 15 5.5C15 6.82608 14.4732 8.09785 13.5355 9.03553C12.5979 9.97322 11.3261 10.5 10 10.5C8.67392 10.5 7.40215 9.97322 6.46447 9.03553C5.52678 8.09785 5 6.82608 5 5.5C5 4.17392 5.52678 2.90215 6.46447 1.96447C7.40215 1.02678 8.67392 0.5 10 0.5Z" fill="#86C232" stroke="#272727"/>
</svg>
